<?xml version="1.0" encoding="utf-8"?>
<!-- Generator: Adobe Illustrator 19.0.0, SVG Export Plug-In . SVG Version: 6.00 Build 0)  -->
<svg version="1.1" id="Layer_1" xmlns="http://www.w3.org/2000/svg" xmlns:xlink="http://www.w3.org/1999/xlink" x="0px" y="0px"
	 viewBox="-164 70.8 512 453.5" style="enable-background:new -164 70.8 512 453.5;" xml:space="preserve">
<style type="text/css">
	.st0{stroke:url(#SVGID_1_);stroke-miterlimit:10;}
	.st1{fill:none;stroke:#99CCFF;stroke-width:25;stroke-miterlimit:10;}
	.st2{fill:#99CCFF;stroke:url(#SVGID_2_);stroke-miterlimit:10;}
</style>
<radialGradient id="SVGID_1_" cx="87.15" cy="296.71" r="209.7286" gradientTransform="matrix(1 0 0 -1 0 594.84)" gradientUnits="userSpaceOnUse">
	<stop  offset="0" style="stop-color:#FFFFFF;stop-opacity:0"/>
	<stop  offset="9.712219e-003" style="stop-color:#FAFAFA;stop-opacity:9.712219e-003"/>
	<stop  offset="0.1284" style="stop-color:#C0C7C6;stop-opacity:0.1284"/>
	<stop  offset="0.2503" style="stop-color:#8D9998;stop-opacity:0.2503"/>
	<stop  offset="0.3725" style="stop-color:#627270;stop-opacity:0.3725"/>
	<stop  offset="0.4952" style="stop-color:#3E5250;stop-opacity:0.4952"/>
	<stop  offset="0.6187" style="stop-color:#233938;stop-opacity:0.6187"/>
	<stop  offset="0.7432" style="stop-color:#0F2826;stop-opacity:0.7432"/>
	<stop  offset="0.8694" style="stop-color:#041D1B;stop-opacity:0.8694"/>
	<stop  offset="1" style="stop-color:#001A18"/>
</radialGradient>
<rect x="-123.3" y="90.1" class="st0" width="420.9" height="416"/>
<rect x="-126.8" y="85.3" class="st1" width="424.4" height="424.4"/>
<radialGradient id="SVGID_2_" cx="95.85" cy="309.16" r="121.217" gradientTransform="matrix(1 0 0 -1 0 594.84)" gradientUnits="userSpaceOnUse">
	<stop  offset="0" style="stop-color:#FFFFFF;stop-opacity:0"/>
	<stop  offset="1" style="stop-color:#003333"/>
</radialGradient>
<path class="st2" d="M-31.9,172.4H9.4v191.8h93v34.6H-31.9V172.4z M169.2,266.5c8.1-23.2,27.2-34.9,44.7-34.9l9.7,1v39
	c-3.4-0.7-7.1-1.3-12.1-1.3c-19.8,0-33.2,12.8-36.9,31.2l-1.3,12.8v84.6H132v-111c0-22.2-0.3-37.9-1.3-52.7h35.9l1.3,31.2
	L169.2,266.5L169.2,266.5z"/>
</svg>
